<svg width="37" height="36" viewBox="0 0 37 36" fill="none" xmlns="http://www.w3.org/2000/svg">
<path fill-rule="evenodd" clip-rule="evenodd" d="M18.2156 36C28.2758 36 36.4312 27.9411 36.4312 18C36.4312 8.05887 28.2758 0 18.2156 0C8.15541 0 0 8.05887 0 18C0 27.9411 8.15541 36 18.2156 36ZM27.4531 10.5469C27.0885 10.1823 26.6458 10 26.125 10H9.875C9.35416 10 8.91146 10.1823 8.54688 10.5469C8.18229 10.9115 8 11.3542 8 11.875V23.125C8 23.6458 8.18229 24.0885 8.54688 24.4531C8.91146 24.8177 9.35416 25 9.875 25H26.125C26.6458 25 27.0885 24.8177 27.4531 24.4531C27.8177 24.0885 28 23.6458 28 23.125V11.875C28 11.3542 27.8177 10.9115 27.4531 10.5469ZM9.875 11.875H26.125V13.4766C25.2135 14.2057 23.4557 15.5859 20.8516 17.6172C20.8516 17.6432 20.6693 17.8125 20.3047 18.125C19.9401 18.4115 19.6667 18.6198 19.4844 18.75C19.3021 18.8542 19.0547 18.9844 18.7422 19.1406C18.4557 19.2969 18.2083 19.375 18 19.375C17.7917 19.375 17.5312 19.2969 17.2188 19.1406C16.9323 18.9844 16.6979 18.8542 16.5156 18.75C16.3333 18.6198 16.0599 18.4115 15.6953 18.125C15.3307 17.8125 15.1484 17.6432 15.1484 17.6172C12.5443 15.5859 10.7865 14.2057 9.875 13.4766V11.875ZM26.125 15.8594V23.125H9.875V15.8594C10.7865 16.5885 12.1536 17.6693 13.9766 19.1016C14.0286 19.1276 14.2109 19.2839 14.5234 19.5703C14.862 19.8307 15.1224 20.026 15.3047 20.1562C15.487 20.2865 15.7344 20.4557 16.0469 20.6641C16.3854 20.8724 16.7109 21.0286 17.0234 21.1328C17.362 21.2109 17.6875 21.25 18 21.25C18.3125 21.25 18.625 21.2109 18.9375 21.1328C19.25 21.0286 19.5755 20.8854 19.9141 20.7031C20.2526 20.4948 20.513 20.3255 20.6953 20.1953C20.8776 20.0651 21.125 19.8568 21.4375 19.5703C21.776 19.2839 21.9714 19.1276 22.0234 19.1016C23.8464 17.6693 25.2135 16.5885 26.125 15.8594Z" fill="#1E1E1E"/>
</svg>
