<svg width="37" height="36" viewBox="0 0 37 36" fill="none" xmlns="http://www.w3.org/2000/svg">
<path fill-rule="evenodd" clip-rule="evenodd" d="M18.2156 36C28.2758 36 36.4313 27.9411 36.4313 18C36.4313 8.05887 28.2758 0 18.2156 0C8.15541 0 0 8.05887 0 18C0 27.9411 8.15541 36 18.2156 36ZM10.2734 25H13.9062V13.3203H10.2734V25ZM10.625 11.0938C11.0417 11.5104 11.5365 11.7188 12.1094 11.7188C12.474 11.7188 12.8125 11.6276 13.125 11.4453C13.4635 11.237 13.724 10.9766 13.9062 10.6641C14.1146 10.3255 14.2188 9.97396 14.2188 9.60938C14.2188 9.21875 14.1146 8.86719 13.9062 8.55469C13.724 8.21615 13.4635 7.95573 13.125 7.77344C12.8125 7.59115 12.474 7.5 12.1094 7.5C11.5365 7.5 11.0417 7.70833 10.625 8.125C10.2083 8.54167 10 9.03646 10 9.60938C10 10.1823 10.2083 10.6771 10.625 11.0938ZM23.8672 25H27.5V18.5938C27.5 17.7344 27.4349 16.9922 27.3047 16.3672C27.2005 15.7422 26.9922 15.1693 26.6797 14.6484C26.3932 14.1016 25.9505 13.6979 25.3516 13.4375C24.7786 13.151 24.0495 13.0078 23.1641 13.0078C22.3307 13.0078 21.6146 13.2031 21.0156 13.5938C20.4167 13.9583 19.987 14.401 19.7266 14.9219H19.6875V13.3203H16.1719V25H19.8047V19.2188C19.8047 18.3073 19.9479 17.5781 20.2344 17.0312C20.5469 16.4844 21.1328 16.2109 21.9922 16.2109C22.4349 16.2109 22.7865 16.3021 23.0469 16.4844C23.3333 16.6667 23.5286 16.9401 23.6328 17.3047C23.737 17.6432 23.8021 17.9557 23.8281 18.2422C23.8542 18.5026 23.8672 18.8542 23.8672 19.2969V25Z" fill="#1E1E1E"/>
</svg>
